<svg width="40" height="40" viewBox="0 0 40 40" fill="none" xmlns="http://www.w3.org/2000/svg">
<g id="4">
<rect id="BG" x="0.193848" width="39.398" height="39.398" rx="19.699" fill="#F48148"/>
<g id="logo-linkedin 1">
<g id="Group">
<path id="Vector" d="M27.0605 12.0001H12.3272C12.0266 12.0001 11.7383 12.1195 11.5258 12.332C11.3133 12.5445 11.1938 12.8328 11.1938 13.1334V27.8667C11.1938 28.1673 11.3133 28.4556 11.5258 28.6681C11.7383 28.8807 12.0266 29.0001 12.3272 29.0001H27.0605C27.3611 29.0001 27.6494 28.8807 27.8619 28.6681C28.0744 28.4556 28.1938 28.1673 28.1938 27.8667V13.1334C28.1938 12.8328 28.0744 12.5445 27.8619 12.332C27.6494 12.1195 27.3611 12.0001 27.0605 12.0001ZM16.2298 26.5033H13.6724V18.3751H16.2298V26.5033ZM14.9508 17.2593C14.6568 17.2584 14.3697 17.1704 14.1257 17.0064C13.8817 16.8424 13.6917 16.6098 13.5798 16.3379C13.4679 16.066 13.4391 15.7671 13.497 15.4788C13.5549 15.1906 13.697 14.926 13.9052 14.7184C14.1134 14.5108 14.3784 14.3696 14.6668 14.3126C14.9553 14.2555 15.2541 14.2852 15.5257 14.398C15.7972 14.5107 16.0293 14.7013 16.1925 14.9459C16.3558 15.1904 16.4429 15.4778 16.4429 15.7718C16.443 15.9675 16.4044 16.1614 16.3294 16.3422C16.2544 16.523 16.1444 16.6872 16.0058 16.8254C15.8671 16.9636 15.7026 17.0731 15.5216 17.1475C15.3405 17.222 15.1466 17.26 14.9508 17.2593ZM25.7124 26.5033H23.2072V22.5718C23.2072 21.6158 23.2072 20.4468 21.8755 20.4468C20.5438 20.4468 20.3835 21.4566 20.3835 22.5185V26.5566H17.8805V18.3751H20.2242V19.4908H20.2775C20.5192 19.0729 20.87 18.7286 21.2923 18.4946C21.7146 18.2606 22.1926 18.1459 22.6751 18.1626C25.2324 18.1626 25.7118 19.8626 25.7118 22.0408L25.7124 26.5033Z" fill="white"/>
</g>
</g>
</g>
</svg>
