<svg width="41" height="40" viewBox="0 0 41 40" fill="none" xmlns="http://www.w3.org/2000/svg">
<g id="3">
<rect id="BG" x="0.795898" width="39.398" height="39.398" rx="19.699" fill="#F48148"/>
<g id="telegram 1">
<g id="Group">
<path id="Vector" d="M29.6829 11.9182C29.6672 11.8462 29.6327 11.7796 29.5829 11.7253C29.5331 11.671 29.4698 11.6309 29.3994 11.6091C29.1433 11.5586 28.8783 11.5775 28.6319 11.6639C28.6319 11.6639 11.5392 17.8074 10.5631 18.4877C10.3522 18.6341 10.2821 18.7188 10.2473 18.8194C10.0784 19.3034 10.604 19.5168 10.604 19.5168L15.0093 20.9525C15.0837 20.9654 15.1601 20.9608 15.2324 20.9391C16.2347 20.3063 25.3154 14.572 25.8403 14.3793C25.9226 14.3543 25.9836 14.3793 25.9702 14.4403C25.7556 15.1755 17.9136 22.1444 17.8704 22.1871C17.8493 22.2043 17.8328 22.2265 17.8222 22.2515C17.8115 22.2766 17.8072 22.3038 17.8094 22.331L17.3997 26.6296C17.3997 26.6296 17.2278 27.9708 18.5666 26.6296C19.5158 25.6792 20.4266 24.8927 20.8832 24.5105C22.3982 25.556 24.0284 26.7125 24.7313 27.3148C24.8493 27.4294 24.9891 27.519 25.1425 27.5783C25.2958 27.6376 25.4595 27.6653 25.6239 27.6599C26.2945 27.6343 26.4774 26.9009 26.4774 26.9009C26.4774 26.9009 29.5915 14.3696 29.6963 12.69C29.7061 12.5254 29.7201 12.4199 29.7213 12.3071C29.7269 12.1763 29.7139 12.0454 29.6829 11.9182Z" fill="white"/>
</g>
</g>
</g>
</svg>
